<?xml version="1.0" encoding="utf-8"?>
<!-- Generator: Adobe Illustrator 23.0.0, SVG Export Plug-In . SVG Version: 6.00 Build 0)  -->
<svg version="1.1" id="Layer_1" xmlns="http://www.w3.org/2000/svg" xmlns:xlink="http://www.w3.org/1999/xlink" x="0px" y="0px"
	 viewBox="0 0 561.4 312.3" style="enable-background:new 0 0 561.4 312.3;" xml:space="preserve">
<style type="text/css">
	.st0{fill:none;}
	.st1{fill:url(#SVGID_1_);}
	.st2{fill:url(#SVGID_2_);}
	.st3{fill:#FFFFFF;}
	.st4{fill:url(#SVGID_3_);}
	.st5{fill:url(#SVGID_4_);}
	.st6{fill:url(#SVGID_5_);}
	.st7{fill:url(#SVGID_6_);}
	.st8{fill:url(#SVGID_7_);}
	.st9{fill:url(#SVGID_8_);}
	.st10{fill:url(#SVGID_9_);}
	.st11{fill:url(#SVGID_10_);}
	.st12{fill:#607072;}
	.st13{fill:#A5A5A5;}
</style>
<g>
	<g>
		<path class="st0" d="M12.5,290.4C12.4,290.4,12.4,290.4,12.5,290.4C12.4,290.4,12.4,290.4,12.5,290.4z"/>
		<linearGradient id="SVGID_1_" gradientUnits="userSpaceOnUse" x1="39.1653" y1="310.5177" x2="39.1653" y2="21.1904">
			<stop  offset="0" style="stop-color:#00E2E2"/>
			<stop  offset="1" style="stop-color:#0067BC"/>
		</linearGradient>
		<path class="st1" d="M78.3,232.2c0.1-50-0.1-220-0.1-220L0,39.8v14.6l41.6-8.2v222.2c0,0.6,0,1.2-0.1,1.8
			C67.5,259.2,77.1,235.6,78.3,232.2z"/>
		<linearGradient id="SVGID_2_" gradientUnits="userSpaceOnUse" x1="45.3275" y1="310.5177" x2="45.3275" y2="21.1904">
			<stop  offset="0" style="stop-color:#00E2E2"/>
			<stop  offset="1" style="stop-color:#0067BC"/>
		</linearGradient>
		<path class="st2" d="M12.5,290.4C12.4,290.4,12.4,290.4,12.5,290.4C12.4,290.4,12.4,290.4,12.5,290.4l-0.1,22
			c58.8,0,65.7-43.9,65.9-65.9c0-2.5,0-7.2,0.1-13.6C70.6,289.1,14.9,290.3,12.5,290.4z"/>
		<path class="st3" d="M12.4,290.4C12.4,290.4,12.4,290.4,12.4,290.4C12.4,290.4,12.4,290.4,12.4,290.4z"/>
	</g>
	<linearGradient id="SVGID_3_" gradientUnits="userSpaceOnUse" x1="473.5202" y1="12.2002" x2="473.5202" y2="268.4001">
		<stop  offset="0" style="stop-color:#0067BC"/>
		<stop  offset="1" style="stop-color:#00E2E2"/>
	</linearGradient>
	<path class="st4" d="M528.3,134c11.5-12.9,18.4-29.9,18.4-48.6c0-40.4-32.8-73.2-73.2-73.2h-14.6c-51.2,0-73.2,22-73.2,73.2
		c0,0.1,0,0.2,0,0.3c0,0,0,0,0-0.1v109.2c0,0,0,0,0-0.1c0,0.1,0,0.2,0,0.3c0,51.2,22,73.2,73.2,73.2h29.3
		c40.4,0,73.2-32.8,73.2-73.2C561.4,169.6,548.2,147.1,528.3,134z M428.9,64.8c0.3-4.6,1.8-8.6,4.2-12l0,0c0,0-7.5,4.5-10.9,9.9
		c0,0,8.2-23.6,46.6-21.9c20.8,0.9,39.9,15.6,38.5,41.7c-2.1,38-45.9,40.1-45.9,40.1c-3.2-7.2-5-6.5-12.3-4.8
		c-15.2,3.6-16.2-8.2-16-10.1c0.3-1.9-3-1.4-3.4-3c-0.4-1.8,1-1.9,1-3.3s-2.6-1.2-2.6-2.6s1.3-1.5,1.3-3.9c0-2.4-5.8-2.7-5.8-6.2
		c0-3.5,6.3-10.8,6.3-13.8C429.9,70.6,428.7,69.6,428.9,64.8z M389.4,166.1c1.9-11.1,4.1-21.5,7.9-31.8c-3.8-10.3-6-20.6-7.9-31.8
		c4.1,12.4,11.5,23.3,21,31.8C400.9,142.7,393.6,153.7,389.4,166.1z M422.7,195.3c0-40.3,49.8-53,70-53c0,0,29.4,23,29.4,53.5
		c0,27.2-23.4,35.6-49.4,35.6h-8C434.4,231.4,422.7,219.3,422.7,195.3z"/>
	<g>
		<g>
			
				<linearGradient id="SVGID_4_" gradientUnits="userSpaceOnUse" x1="-11575.5195" y1="1369.3568" x2="-11575.5195" y2="1110.7167" gradientTransform="matrix(-4.489700e-11 1 -1 -4.489700e-11 1486.8402 11719.4805)">
				<stop  offset="0" style="stop-color:#00E2E2"/>
				<stop  offset="1" style="stop-color:#0067BC"/>
			</linearGradient>
			<path class="st5" d="M246.8,273.3c-71.3,0-129.3-58-129.3-129.3s58-129.3,129.3-129.3s129.3,58,129.3,129.3
				S318.1,273.3,246.8,273.3z M246.8,39C189,39,141.9,86.1,141.9,144S189,248.9,246.8,248.9S351.7,201.8,351.7,144
				S304.7,39,246.8,39z"/>
		</g>
		<g>
			
				<linearGradient id="SVGID_5_" gradientUnits="userSpaceOnUse" x1="-10449.3555" y1="13177.04" x2="-10449.3555" y2="12918.3994" gradientTransform="matrix(-1 0 0 -1 -10232.6396 13206.3203)">
				<stop  offset="0" style="stop-color:#00E2E2"/>
				<stop  offset="1" style="stop-color:#0067BC"/>
			</linearGradient>
			<path class="st6" d="M117.5,144c0-31.9,11.6-61.2,30.9-83.8c-27.8,23.7-45.5,59.1-45.5,98.4c0,71.3,58,129.3,129.3,129.3
				c39.4,0,74.7-17.7,98.4-45.5c-22.6,19.3-51.8,30.9-83.8,30.9C175.5,273.3,117.5,215.3,117.5,144z"/>
			
				<linearGradient id="SVGID_6_" gradientUnits="userSpaceOnUse" x1="-10491.3467" y1="13177.04" x2="-10491.3467" y2="12918.3994" gradientTransform="matrix(-1 0 0 -1 -10232.6396 13206.3203)">
				<stop  offset="0" style="stop-color:#00E2E2"/>
				<stop  offset="1" style="stop-color:#0067BC"/>
			</linearGradient>
			<path class="st7" d="M351.7,144C351.7,86.1,304.7,39,246.8,39c-32.6,0-61.9,15-81.1,38.4c18.1-14.9,41.3-23.8,66.5-23.8
				c57.9,0,104.9,47.1,104.9,104.9c0,25.2-8.9,48.4-23.8,66.5C336.7,205.8,351.7,176.6,351.7,144z"/>
		</g>
		<g>
			
				<linearGradient id="SVGID_7_" gradientUnits="userSpaceOnUse" x1="1358.328" y1="12066.3242" x2="1358.328" y2="11807.6836" gradientTransform="matrix(4.489700e-11 -1 1 4.489700e-11 -11719.4805 1486.8402)">
				<stop  offset="0" style="stop-color:#00E2E2"/>
				<stop  offset="1" style="stop-color:#0067BC"/>
			</linearGradient>
			<path class="st8" d="M148.4,60.2L148.4,60.2c20.8-24.3,50.4-40.9,83.8-44.7c-4.8-0.5-9.7-0.8-14.6-0.8
				c-71.3,0-129.3,58-129.3,129.3c0,39.4,17.7,74.7,45.5,98.4c-19.3-22.6-30.9-51.8-30.9-83.8C102.8,119.2,120.5,83.9,148.4,60.2z"
				/>
			<g>
				
					<linearGradient id="SVGID_8_" gradientUnits="userSpaceOnUse" x1="1323.6576" y1="12066.3242" x2="1323.6576" y2="11807.6836" gradientTransform="matrix(4.489700e-11 -1 1 4.489700e-11 -11719.4805 1486.8402)">
					<stop  offset="0" style="stop-color:#00E2E2"/>
					<stop  offset="1" style="stop-color:#0067BC"/>
				</linearGradient>
				<path class="st9" d="M298.6,77.5c14.9,18.1,23.8,41.3,23.8,66.5c0,52.9-39.3,96.7-90.3,103.9c4.8,0.7,9.7,1,14.6,1
					c25.2,0,48.4-8.9,66.5-23.8c14.9-18.1,23.8-41.3,23.8-66.5C337.1,126,322.1,96.7,298.6,77.5z"/>
			</g>
		</g>
		<g>
			<linearGradient id="SVGID_9_" gradientUnits="userSpaceOnUse" x1="232.1638" y1="258.6406" x2="232.1638" y2="0">
				<stop  offset="0" style="stop-color:#00E2E2"/>
				<stop  offset="1" style="stop-color:#0067BC"/>
			</linearGradient>
			<path class="st10" d="M232.2,15.5c4.8-0.5,9.7-0.8,14.6-0.8c31.9,0,61.2,11.6,83.8,30.9C306.8,17.7,271.5,0,232.2,0
				c-39.4,0-74.7,17.7-98.4,45.5c22.6-19.3,51.8-30.9,83.8-30.9C222.5,14.6,227.4,14.9,232.2,15.5z"/>
			<linearGradient id="SVGID_10_" gradientUnits="userSpaceOnUse" x1="232.1512" y1="258.6406" x2="232.1512" y2="-2.116252e-08">
				<stop  offset="0" style="stop-color:#00E2E2"/>
				<stop  offset="1" style="stop-color:#0067BC"/>
			</linearGradient>
			<path class="st11" d="M239.3,248.6c-2.4-0.2-4.8-0.4-7.2-0.8c26.7-3.7,50.1-17.5,66.4-37.4c-18.1,14.9-41.3,23.8-66.4,23.8
				c-25.2,0-48.4-8.9-66.5-23.8C183.5,232.1,209.7,246.5,239.3,248.6z"/>
		</g>
	</g>
	<g>
		<g>
			<g>
				<path class="st12" d="M187.5,167.3v-40.7h-6.8V121c1.9-0.2,3.7-0.9,5.5-2.2c1.7-1.2,3-2.7,3.7-4.5h5.6v52.9H187.5z"/>
				<path class="st12" d="M228.9,155.2c0,3.5-1.2,6.5-3.7,8.9c-2.5,2.4-5.4,3.7-8.9,3.7c-3.5,0-6.5-1.2-9-3.7
					c-2.5-2.5-3.7-5.4-3.7-8.9v-28.9c0-3.5,1.2-6.5,3.7-9c2.5-2.5,5.5-3.7,9-3.7c3.5,0,6.5,1.2,8.9,3.7c2.4,2.5,3.7,5.5,3.7,8.9
					V155.2z M220.6,126.2c0-1.3-0.5-2.3-1.4-3.3c-0.9-0.9-2-1.4-3.3-1.4s-2.3,0.5-3.2,1.4c-0.9,0.9-1.3,2-1.3,3.3v28.9
					c0,1.3,0.4,2.4,1.3,3.3c0.9,0.9,2,1.4,3.2,1.4s2.3-0.5,3.3-1.4c0.9-0.9,1.4-2,1.4-3.3V126.2z"/>
			</g>
		</g>
		<path class="st12" d="M247.6,159.7L247.6,159.7c-1.4-0.1-2.5-0.5-3.4-1.4c-1.1-1.1-1.6-2.5-1.6-4.2v-2.5c0-1.8,0.2-3.3,0.7-4.4
			c0.8-1.8,2.2-2.7,4.3-2.7c1.2,0,2.2,0.3,2.8,0.8c1.4,1.1,2.2,3.2,2.2,6.3v0.9h8v-2c0-2-0.3-3.6-1-5c-1.3-2.7-3.1-4.7-5.5-6
			c1.1-0.6,2-1.3,2.9-2.3c2-2.2,3-4.9,3-8.2V126c0-3.4-1-6.2-3-8.5c-2.3-2.5-5.2-3.8-9-3.8h-0.6c-3.7,0-6.7,1.3-9,3.8
			c-2,2.3-3,5.1-3,8.5v2.9c0,2,0.3,3.7,0.9,5c1.2,2.6,2.8,4.4,5,5.5c-1.2,0.7-2.3,1.5-3.3,2.6c-2.2,2.4-3.3,5.2-3.3,8.5v4.8
			c0,3.5,1.2,6.4,3.7,8.9c2.4,2.5,5.4,3.7,9,3.7h0.3V159.7z M242.7,124.5c0.3-1,0.8-1.8,1.5-2.4c0.9-0.8,2-1.1,3.4-1.1
			c0.7,0,1.3,0.1,1.8,0.3c2.2,0.9,3.4,3.2,3.4,6.8c0,2-0.3,3.6-1.1,4.8c-0.9,1.4-2.3,2.1-4.2,2.1c-1.9,0-3.3-0.7-4.1-2
			c-0.6-1-1-2.7-1.1-5C242.3,126.7,242.4,125.5,242.7,124.5z"/>
		<g>
			<g>
				<g>
					<path class="st13" d="M244.7,174h2.9v2.9h-2.9V174z"/>
					<path class="st13" d="M256.9,172.8c0,1.2-0.4,2.1-1.2,2.9c-0.8,0.8-1.8,1.2-2.9,1.2c-0.7,0-1.2-0.1-1.6-0.2v-2.5
						c0.3,0.1,0.8,0.2,1.1,0.2c0.1,0,0.3,0,0.6,0c0.4,0,0.8-0.2,1.1-0.5c0.3-0.3,0.4-0.6,0.4-1v-13.4h2.6V172.8z"/>
					<path class="st13" d="M263.9,159.2c1.2,0,2.1,0.4,2.9,1.2c0.8,0.8,1.2,1.8,1.2,2.9v9.4c0,1.2-0.4,2.1-1.2,2.9
						c-0.8,0.8-1.8,1.2-2.9,1.2c-1.2,0-2.1-0.4-2.9-1.2c-0.8-0.8-1.2-1.8-1.2-2.9v-9.4c0-1.2,0.4-2.1,1.2-2.9
						C261.8,159.6,262.8,159.2,263.9,159.2z M265.4,163.3c0-0.4-0.1-0.8-0.4-1.1c-0.3-0.3-0.6-0.4-1.1-0.4c-0.4,0-0.8,0.1-1.1,0.4
						c-0.3,0.3-0.4,0.6-0.4,1.1v9.5c0,0.4,0.1,0.8,0.4,1.1c0.3,0.3,0.6,0.4,1.1,0.4c0.4,0,0.8-0.1,1.1-0.4c0.3-0.3,0.4-0.6,0.4-1.1
						V163.3z"/>
					<path class="st13" d="M271.1,176.7v-17.3h3.9c1,0,2,0.3,2.8,0.8c0.7,0.5,1.2,1.2,1.5,2.1c0.2,0.5,0.2,1.1,0.2,1.8
						c0,1.2-0.3,2.1-0.9,2.8c-0.3,0.3-0.6,0.5-0.9,0.7c0.6,0.2,1.1,0.7,1.5,1.3c0.3,0.4,0.5,1,0.6,1.7c0.1,0.4,0.1,0.8,0.1,1.2
						c0,1.1-0.2,2-0.6,2.8c-0.3,0.6-0.8,1.1-1.4,1.4c-0.7,0.4-1.3,0.6-2,0.6H271.1z M273.9,166.5h1.1c0.8,0,1.4-0.4,1.6-1.2
						c0.1-0.3,0.2-0.7,0.2-1.1c0-0.7-0.2-1.3-0.5-1.6c-0.3-0.3-0.7-0.5-1.3-0.5h-1.1V166.5z M273.9,174.1h1.1c0.9,0,1.5-0.5,1.8-1.4
						c0.1-0.3,0.2-0.7,0.2-1.1c0-1-0.2-1.7-0.6-2.1c-0.3-0.4-0.8-0.6-1.5-0.6h-1.1V174.1z"/>
					<path class="st13" d="M290.6,172.4c0,1.2-0.3,2.2-0.9,3.1c-0.4,0.6-1,1-1.8,1.2c-0.4,0.1-0.9,0.2-1.5,0.2c-1,0-1.9-0.3-2.5-0.8
						c-0.6-0.4-1-1-1.3-1.7c-0.3-0.7-0.5-1.5-0.6-2.5l2.5-0.2c0.1,1,0.4,1.7,0.8,2.2c0.3,0.3,0.7,0.5,1.1,0.5c0.6,0,1-0.3,1.4-0.8
						c0.2-0.3,0.3-0.6,0.3-1.1c0-0.7-0.3-1.4-1-2.1c-0.5-0.5-1.3-1.2-2.3-2.2c-0.9-0.8-1.5-1.6-1.8-2.3c-0.4-0.7-0.6-1.6-0.6-2.4
						c0-1.6,0.5-2.8,1.6-3.6c0.7-0.5,1.5-0.7,2.4-0.7c0.9,0,1.7,0.2,2.4,0.6c0.5,0.3,0.9,0.8,1.3,1.4c0.3,0.6,0.5,1.2,0.6,2
						l-2.5,0.5c-0.1-0.7-0.3-1.3-0.6-1.7c-0.2-0.3-0.6-0.4-1-0.4c-0.5,0-0.8,0.2-1.1,0.6c-0.2,0.3-0.3,0.8-0.3,1.3
						c0,0.8,0.3,1.6,1,2.4c0.3,0.3,0.6,0.7,1.2,1.1c0.6,0.5,1,0.9,1.2,1.1c0.6,0.6,1.1,1.3,1.5,1.9c0.2,0.3,0.3,0.6,0.4,0.8
						C290.5,171.4,290.6,171.9,290.6,172.4z"/>
				</g>
			</g>
		</g>
	</g>
</g>
</svg>
